<?xml version="1.0" encoding="utf-8"?>
<!-- Generator: Adobe Illustrator 21.1.0, SVG Export Plug-In . SVG Version: 6.00 Build 0)  -->
<svg version="1.1" id="Layer_1" xmlns="http://www.w3.org/2000/svg" xmlns:xlink="http://www.w3.org/1999/xlink" x="0px" y="0px"
	 viewBox="0 0 68.3 92.4" style="enable-background:new 0 0 68.3 92.4;" xml:space="preserve">
<g>
	<path d="M20.2,16.9c0.9,0.4,1.8,0.6,2.7,0.6c0.7,0,1.4-0.1,2.1-0.4c3.3-1.1,5.1-4.7,4-7.9c-0.2-0.5-0.7-0.8-1.3-0.6
		c-0.5,0.2-0.8,0.7-0.6,1.3c0.7,2.2-0.5,4.6-2.8,5.3c-1.1,0.4-2.3,0.3-3.3-0.2c-1-0.5-1.8-1.3-2.1-2.4c-0.2-0.5-0.7-0.8-1.3-0.6
		c-0.5,0.2-0.8,0.7-0.6,1.3C17.5,14.9,18.6,16.2,20.2,16.9z"/>
	<path d="M18.7,31.2c0.7,0.4,1.4,0.6,2.2,0.6c0.4,0,0.8-0.1,1.3-0.2c0.5-0.2,0.8-0.7,0.7-1.2c-0.2-0.5-0.7-0.8-1.2-0.7
		c-0.6,0.2-1.3,0.1-1.9-0.2c-0.6-0.3-1-0.9-1.3-1.6c-0.2-0.7-0.1-1.4,0.2-2c0.3-0.6,0.8-1,1.5-1.2c0.5-0.2,0.8-0.7,0.7-1.2
		s-0.7-0.8-1.2-0.7c-1.2,0.3-2.1,1.1-2.7,2.2c-0.6,1.1-0.7,2.3-0.3,3.5C16.9,29.6,17.7,30.6,18.7,31.2z"/>
	<path d="M22.9,35.2c-0.2-0.5-0.7-0.8-1.3-0.6c-0.5,0.2-0.8,0.7-0.6,1.3c0.6,1.8,2.4,3,4.3,3c0.5,0,1-0.1,1.5-0.3
		c2.4-0.8,3.7-3.4,2.9-5.8c-0.2-0.5-0.7-0.8-1.3-0.6c-0.5,0.2-0.8,0.7-0.6,1.3c0.4,1.3-0.3,2.7-1.7,3.2
		C24.8,37.1,23.4,36.5,22.9,35.2z"/>
	<path d="M23.8,55.7c0.3,2.4,2.2,4.1,4.5,4.1c0.2,0,0.4,0,0.5,0c0.5-0.1,0.9-0.6,0.9-1.1c-0.1-0.5-0.6-0.9-1.1-0.9
		c-1.4,0.2-2.6-0.9-2.8-2.3c-0.1-0.7,0.1-1.4,0.5-2c0.4-0.5,1-0.9,1.6-1c0.5-0.1,0.9-0.6,0.9-1.1c-0.1-0.5-0.6-0.9-1.1-0.9
		c-1.2,0.1-2.3,0.8-3,1.7C24,53.2,23.7,54.4,23.8,55.7z"/>
	<path d="M23.4,43.8c-1.3-3.2-4.8-4.8-7.9-3.6c-0.5,0.2-0.8,0.8-0.6,1.3s0.8,0.8,1.3,0.6c2.1-0.8,4.5,0.3,5.3,2.5
		c0.9,2.2-0.1,4.6-2.2,5.4c-0.5,0.2-0.8,0.8-0.6,1.3c0.2,0.4,0.5,0.6,0.9,0.6c0.1,0,0.2,0,0.4-0.1C23.1,50.6,24.6,47,23.4,43.8z"/>
	<path d="M37.6,4c-0.3,0-0.6,0.1-0.8,0.2S36.5,4.7,36.5,5l0,64.1c0,0.6,0.4,1,1,1h11.9c0.6,0,1-0.4,1-1V59c9.2-5.6,15-15.5,15-26
		C65.4,17,55,6.1,37.6,4z M38.5,38.2h2.4c-0.1,0.6-0.1,1.1-0.2,1.8v28.1h-2.2L38.5,38.2L38.5,38.2z M49,57.6
		c-0.3,0.2-0.5,0.5-0.5,0.9v9.7h-5.7l0-28.1c0-0.6,0.1-1.3,0.2-1.8l1.8,0c1.6,0.1,4.9-0.5,6-3.7c0.4-1.2,0.2-2.4-0.7-3.2
		c-0.8-0.9-2.1-1.2-3.2-0.9c-2,0.6-4.4,2-5.5,5.8h-2.8V6.1C54.1,8.4,63.4,18.4,63.4,33C63.4,43.1,58,52.3,49,57.6z M43.5,36.2
		c0.7-2.1,2.1-3.4,3.9-3.9c0.5-0.1,0.9,0,1.2,0.3c0.1,0.2,0.5,0.6,0.2,1.2c-0.9,2.6-3.8,2.4-4,2.4L43.5,36.2L43.5,36.2z"/>
	<path d="M48.3,71.4h-26c-0.6,0-1,0.4-1,1v6.8c0,4,3.3,7.3,7.3,7.3h0.9c0.3,0.9,0.9,1.7,1.7,2.3c1.1,0.8,2.6,1.2,4.1,1.2
		c0,0,0,0,0,0c2.9,0,5.2-1.5,5.8-3.5H42c4,0,7.3-3.3,7.3-7.3v-6.8C49.3,71.8,48.8,71.4,48.3,71.4z M23.3,79.2v-1.6h24v1.6
		c0,0.2,0,0.3-0.1,0.5H23.3C23.3,79.6,23.3,79.4,23.3,79.2z M47.3,73.4v2.2h-24v-2.2H47.3z M35.3,88C35.3,88,35.3,88,35.3,88
		c-1.1,0-2.2-0.3-3-0.8c-0.2-0.1-0.5-0.3-0.7-0.6h7.2C38.2,87.4,36.9,88,35.3,88z M42,84.5h-1.5c-0.1,0-0.1,0-0.2,0c0,0,0,0,0,0
		c-0.1,0-0.1,0-0.2,0h-9.7c0,0-0.1,0-0.1,0c0,0,0,0,0,0c0,0-0.1,0-0.1,0h-1.6c-2,0-3.7-1.1-4.6-2.8h22.6C45.7,83.4,44,84.5,42,84.5z
		"/>
	<path d="M32.7,70.4C32.7,70.4,32.7,70.4,32.7,70.4c0.3,0,0.5-0.1,0.7-0.3c0.2-0.2,0.3-0.4,0.3-0.7V5.5c0-0.3-0.1-0.5-0.3-0.7
		c-0.1-0.1-2.9-2.8-7.1-2.7c-3.2,0-6.4,1.7-9.5,4.8c-1.1,0.2-4.6,1-6.4,3.8c-0.9,1.4-1.3,3-1.1,4.9c-1.2,0.7-2.4,1.7-3.2,3.4
		c-1.3,2.4-1.4,5.2-0.4,8c-1.7,1.1-3.2,2.9-3.8,6.2c-0.7,4.3,1.6,7.4,4.2,9.4c0,0.2,0,0.4,0,0.6c0,5.4,4.1,9.8,9.3,10
		c0.5,2.5,2,5.1,5.2,6.6v9.4c0,0.5,0.4,1,1,1L32.7,70.4z M17.2,49.4c0.1-0.5-0.2-1.1-0.8-1.2c-0.5-0.1-1.1,0.2-1.2,0.8
		c-0.1,0.6-0.2,1.3-0.2,2.2c-3.7-0.3-6.7-3.5-7-7.4c0.7,0.4,1.4,0.6,1.9,0.8c0.1,0,0.2,0.1,0.3,0c0.4,0,0.8-0.3,0.9-0.7
		c0.2-0.5-0.1-1.1-0.6-1.3c-0.1,0-1.2-0.4-2.5-1.2C8.9,37.8,12,35,15.8,35c0.6,0,1-0.4,1-1s-0.4-1-1-1c-4.4,0-8.1,3-9.3,7.2
		c-1.7-1.5-3.2-3.7-2.6-6.8c0.4-2.4,1.5-3.8,2.7-4.7c0.4,0.7,0.8,1.4,1.4,2.1c0.2,0.3,0.5,0.4,0.8,0.4c0.2,0,0.4-0.1,0.6-0.2
		c0.4-0.3,0.5-1,0.2-1.4C9,29,8.6,28.4,8.3,27.8c1.6-0.5,2.9-0.3,3.1-0.3c0.5,0.1,1-0.3,1.1-0.9c0.1-0.5-0.3-1.1-0.9-1.1
		c0,0-2-0.2-4.1,0.5c-0.8-2.2-0.7-4.3,0.3-6.2c0.5-1,1.2-1.6,1.8-2.2c0,0.1,0,0.2,0.1,0.3c0.2,0.5,0.7,0.8,1.2,0.7
		c0.5-0.2,0.8-0.7,0.7-1.2c-0.1-0.2-0.1-0.5-0.2-0.7c1.7-0.6,3.3-0.4,3.4-0.4c0.5,0.1,1-0.3,1.1-0.9c0.1-0.5-0.3-1.1-0.9-1.1
		c-0.1,0-1.9-0.2-3.9,0.4c0-1.1,0.3-2.1,0.8-2.9c1.7-2.5,5.3-3,5.3-3c0.2,0,0.4-0.1,0.6-0.3C20.7,5.5,23.5,4,26.3,4
		C29,4,31,5.3,31.7,5.9v13.4c-0.4-0.2-0.8-0.4-1.3-0.5c-1.2-0.2-2.4,0-3.4,0.7c-1,0.7-1.7,1.7-2,2.9c-0.3,1.2-0.1,2.4,0.6,3.4
		c0.2,0.3,0.5,0.5,0.8,0.5c0.2,0,0.4-0.1,0.5-0.2c0.5-0.3,0.6-0.9,0.3-1.4c-0.4-0.6-0.5-1.2-0.3-1.9c0.2-0.7,0.6-1.3,1.2-1.7
		c0.6-0.4,1.3-0.5,2-0.4c0.7,0.1,1.2,0.5,1.6,1c0,0,0,0,0.1,0.1V44c-0.2,0.1-0.3,0.2-0.4,0.4c-0.3,0.5-0.7,0.8-1.3,1
		c-0.6,0.1-1.2,0.1-1.7-0.2c-0.5-0.3-0.9-0.8-1.1-1.3c-0.2-0.5-0.1-1.1,0.2-1.6c0.3-0.5,0.1-1.1-0.4-1.4c-0.5-0.3-1.1-0.1-1.4,0.4
		c-0.5,1-0.6,2.1-0.3,3.1c0.3,1.1,1,1.9,2,2.5c0.6,0.4,1.4,0.5,2.1,0.5c0.4,0,0.7,0,1.1-0.1c0.4-0.1,0.8-0.3,1.1-0.5v21.5l-9.1-0.2
		V59c0-0.4-0.3-0.8-0.7-0.9C16,55.9,17.2,49.6,17.2,49.4z"/>
</g>
</svg>
